<mxfile host="app.diagrams.net" modified="2023-05-10T19:39:42.802Z" agent="Mozilla/5.0 (Windows NT 10.0; Win64; x64) AppleWebKit/537.36 (KHTML, like Gecko) Chrome/112.0.0.0 Safari/537.36" etag="tb_iRggEaIP74wqyYHJj" version="21.2.9" type="device">
  <diagram name="Side-1" id="GAiowCaoIhMKVycIKYPk">
    <mxGraphModel dx="2544" dy="919" grid="0" gridSize="10" guides="1" tooltips="1" connect="1" arrows="1" fold="1" page="1" pageScale="1" pageWidth="827" pageHeight="1169" math="0" shadow="0">
      <root>
        <mxCell id="0" />
        <mxCell id="1" parent="0" />
        <mxCell id="Hu1gVXQANjmjMfa-NOWD-142" value="" style="rounded=0;whiteSpace=wrap;html=1;dashed=1;fillColor=none;" parent="1" vertex="1">
          <mxGeometry x="116" y="248" width="150" height="203" as="geometry" />
        </mxCell>
        <mxCell id="2_-34rHhVmnG4LonBreD-8" style="edgeStyle=orthogonalEdgeStyle;rounded=0;orthogonalLoop=1;jettySize=auto;html=1;entryX=0;entryY=0.5;entryDx=0;entryDy=0;entryPerimeter=0;exitX=1.004;exitY=0.679;exitDx=0;exitDy=0;exitPerimeter=0;" edge="1" parent="1" source="Hu1gVXQANjmjMfa-NOWD-141" target="2_-34rHhVmnG4LonBreD-4">
          <mxGeometry relative="1" as="geometry">
            <Array as="points">
              <mxPoint x="60" y="478" />
              <mxPoint x="60" y="552" />
            </Array>
          </mxGeometry>
        </mxCell>
        <mxCell id="Hu1gVXQANjmjMfa-NOWD-141" value="" style="rounded=0;whiteSpace=wrap;html=1;dashed=1;fillColor=none;" parent="1" vertex="1">
          <mxGeometry x="-154" y="248" width="150" height="339" as="geometry" />
        </mxCell>
        <mxCell id="Hu1gVXQANjmjMfa-NOWD-140" value="" style="rounded=0;whiteSpace=wrap;html=1;dashed=1;fillColor=none;" parent="1" vertex="1">
          <mxGeometry x="-484" y="248" width="200" height="339" as="geometry" />
        </mxCell>
        <mxCell id="Hu1gVXQANjmjMfa-NOWD-12" style="edgeStyle=orthogonalEdgeStyle;rounded=0;orthogonalLoop=1;jettySize=auto;html=1;startArrow=classic;startFill=1;endArrow=none;endFill=0;" parent="1" source="Hu1gVXQANjmjMfa-NOWD-2" target="Hu1gVXQANjmjMfa-NOWD-10" edge="1">
          <mxGeometry relative="1" as="geometry" />
        </mxCell>
        <mxCell id="Hu1gVXQANjmjMfa-NOWD-13" value="art, icons, champions" style="edgeLabel;html=1;align=center;verticalAlign=middle;resizable=0;points=[];labelBackgroundColor=none;" parent="Hu1gVXQANjmjMfa-NOWD-12" vertex="1" connectable="0">
          <mxGeometry x="-0.2015" y="1" relative="1" as="geometry">
            <mxPoint x="19" y="-9" as="offset" />
          </mxGeometry>
        </mxCell>
        <mxCell id="2_-34rHhVmnG4LonBreD-5" value="multiple, unknown" style="edgeLabel;html=1;align=center;verticalAlign=middle;resizable=0;points=[];" vertex="1" connectable="0" parent="Hu1gVXQANjmjMfa-NOWD-12">
          <mxGeometry x="-0.2015" y="1" relative="1" as="geometry">
            <mxPoint x="-152" y="-44" as="offset" />
          </mxGeometry>
        </mxCell>
        <mxCell id="2_-34rHhVmnG4LonBreD-6" value="Node Express" style="edgeLabel;html=1;align=center;verticalAlign=middle;resizable=0;points=[];" vertex="1" connectable="0" parent="Hu1gVXQANjmjMfa-NOWD-12">
          <mxGeometry x="-0.2015" y="1" relative="1" as="geometry">
            <mxPoint x="153" y="-44" as="offset" />
          </mxGeometry>
        </mxCell>
        <mxCell id="2_-34rHhVmnG4LonBreD-7" value="Vite" style="edgeLabel;html=1;align=center;verticalAlign=middle;resizable=0;points=[];" vertex="1" connectable="0" parent="Hu1gVXQANjmjMfa-NOWD-12">
          <mxGeometry x="-0.2015" y="1" relative="1" as="geometry">
            <mxPoint x="423" y="-44" as="offset" />
          </mxGeometry>
        </mxCell>
        <mxCell id="Hu1gVXQANjmjMfa-NOWD-2" value="ddragon.leagueoflegends.com&lt;br&gt;[server]" style="rounded=0;whiteSpace=wrap;html=1;fillColor=none;" parent="1" vertex="1">
          <mxGeometry x="-474" y="307" width="180" height="60" as="geometry" />
        </mxCell>
        <mxCell id="Hu1gVXQANjmjMfa-NOWD-3" value="euw1.api.riotgames.com&lt;br&gt;[server]" style="rounded=0;whiteSpace=wrap;html=1;fillColor=none;" parent="1" vertex="1">
          <mxGeometry x="-474" y="447" width="180" height="60" as="geometry" />
        </mxCell>
        <mxCell id="Hu1gVXQANjmjMfa-NOWD-4" value="cdn.merakianalytics.com&lt;br&gt;[server]" style="rounded=0;whiteSpace=wrap;html=1;fillColor=none;" parent="1" vertex="1">
          <mxGeometry x="-474" y="377" width="180" height="60" as="geometry" />
        </mxCell>
        <mxCell id="Hu1gVXQANjmjMfa-NOWD-5" value="br1.api.riotgames.com&lt;br&gt;[server]" style="rounded=0;whiteSpace=wrap;html=1;fillColor=none;" parent="1" vertex="1">
          <mxGeometry x="-474" y="517" width="180" height="60" as="geometry" />
        </mxCell>
        <mxCell id="Hu1gVXQANjmjMfa-NOWD-6" value="&lt;font style=&quot;font-size: 23px;&quot;&gt;RIOT&lt;/font&gt;" style="text;html=1;align=center;verticalAlign=middle;resizable=0;points=[];autosize=1;strokeColor=none;fillColor=none;" parent="1" vertex="1">
          <mxGeometry x="-424" y="247" width="80" height="40" as="geometry" />
        </mxCell>
        <mxCell id="Hu1gVXQANjmjMfa-NOWD-7" value="&lt;font style=&quot;font-size: 23px;&quot;&gt;SLS Backend&lt;/font&gt;" style="text;html=1;align=center;verticalAlign=middle;resizable=0;points=[];autosize=1;strokeColor=none;fillColor=none;" parent="1" vertex="1">
          <mxGeometry x="-159" y="246" width="160" height="40" as="geometry" />
        </mxCell>
        <mxCell id="Hu1gVXQANjmjMfa-NOWD-8" value="&lt;font style=&quot;font-size: 23px;&quot;&gt;SLS Frontend&lt;/font&gt;" style="text;html=1;align=center;verticalAlign=middle;resizable=0;points=[];autosize=1;strokeColor=none;fillColor=none;" parent="1" vertex="1">
          <mxGeometry x="106" y="247" width="170" height="40" as="geometry" />
        </mxCell>
        <mxCell id="Hu1gVXQANjmjMfa-NOWD-18" style="edgeStyle=orthogonalEdgeStyle;rounded=0;orthogonalLoop=1;jettySize=auto;html=1;entryX=1;entryY=0.5;entryDx=0;entryDy=0;" parent="1" source="Hu1gVXQANjmjMfa-NOWD-10" target="Hu1gVXQANjmjMfa-NOWD-4" edge="1">
          <mxGeometry relative="1" as="geometry">
            <Array as="points">
              <mxPoint x="-164" y="337" />
              <mxPoint x="-164" y="407" />
            </Array>
          </mxGeometry>
        </mxCell>
        <mxCell id="Hu1gVXQANjmjMfa-NOWD-19" value="In depth champion data" style="edgeLabel;html=1;align=center;verticalAlign=middle;resizable=0;points=[];labelBackgroundColor=none;" parent="Hu1gVXQANjmjMfa-NOWD-18" vertex="1" connectable="0">
          <mxGeometry x="0.6679" relative="1" as="geometry">
            <mxPoint x="36" y="15" as="offset" />
          </mxGeometry>
        </mxCell>
        <mxCell id="Hu1gVXQANjmjMfa-NOWD-10" value="text cached, art &amp;amp; icons cached as URLs" style="rounded=0;whiteSpace=wrap;html=1;fillColor=none;" parent="1" vertex="1">
          <mxGeometry x="-141" y="307" width="120" height="60" as="geometry" />
        </mxCell>
        <mxCell id="Hu1gVXQANjmjMfa-NOWD-14" style="edgeStyle=orthogonalEdgeStyle;rounded=0;orthogonalLoop=1;jettySize=auto;html=1;" parent="1" source="Hu1gVXQANjmjMfa-NOWD-11" target="Hu1gVXQANjmjMfa-NOWD-10" edge="1">
          <mxGeometry relative="1" as="geometry" />
        </mxCell>
        <mxCell id="Hu1gVXQANjmjMfa-NOWD-15" value="art urls, icon urls &lt;br&gt;&amp;amp; champion data" style="edgeLabel;html=1;align=center;verticalAlign=middle;resizable=0;points=[];labelBackgroundColor=none;" parent="Hu1gVXQANjmjMfa-NOWD-14" vertex="1" connectable="0">
          <mxGeometry x="0.2" relative="1" as="geometry">
            <mxPoint x="20" y="-15" as="offset" />
          </mxGeometry>
        </mxCell>
        <mxCell id="Hu1gVXQANjmjMfa-NOWD-11" value="Display" style="rounded=0;whiteSpace=wrap;html=1;fillColor=none;" parent="1" vertex="1">
          <mxGeometry x="131" y="307" width="120" height="60" as="geometry" />
        </mxCell>
        <mxCell id="Hu1gVXQANjmjMfa-NOWD-20" style="edgeStyle=orthogonalEdgeStyle;rounded=0;orthogonalLoop=1;jettySize=auto;html=1;" parent="1" source="Hu1gVXQANjmjMfa-NOWD-16" target="Hu1gVXQANjmjMfa-NOWD-3" edge="1">
          <mxGeometry relative="1" as="geometry">
            <Array as="points">
              <mxPoint x="-81" y="477" />
            </Array>
          </mxGeometry>
        </mxCell>
        <mxCell id="Hu1gVXQANjmjMfa-NOWD-24" value="current rotation, accounts" style="edgeLabel;html=1;align=center;verticalAlign=middle;resizable=0;points=[];labelBackgroundColor=none;" parent="Hu1gVXQANjmjMfa-NOWD-20" vertex="1" connectable="0">
          <mxGeometry x="0.1896" y="1" relative="1" as="geometry">
            <mxPoint x="-23" y="-11" as="offset" />
          </mxGeometry>
        </mxCell>
        <mxCell id="Hu1gVXQANjmjMfa-NOWD-16" value="cached" style="rounded=0;whiteSpace=wrap;html=1;fillColor=none;" parent="1" vertex="1">
          <mxGeometry x="-141" y="377" width="120" height="60" as="geometry" />
        </mxCell>
        <mxCell id="Hu1gVXQANjmjMfa-NOWD-22" style="edgeStyle=orthogonalEdgeStyle;rounded=0;orthogonalLoop=1;jettySize=auto;html=1;" parent="1" source="Hu1gVXQANjmjMfa-NOWD-21" target="Hu1gVXQANjmjMfa-NOWD-16" edge="1">
          <mxGeometry relative="1" as="geometry" />
        </mxCell>
        <mxCell id="Hu1gVXQANjmjMfa-NOWD-23" value="current rotation" style="edgeLabel;html=1;align=center;verticalAlign=middle;resizable=0;points=[];labelBackgroundColor=none;" parent="Hu1gVXQANjmjMfa-NOWD-22" vertex="1" connectable="0">
          <mxGeometry x="0.2122" y="-2" relative="1" as="geometry">
            <mxPoint x="25" y="-8" as="offset" />
          </mxGeometry>
        </mxCell>
        <mxCell id="Hu1gVXQANjmjMfa-NOWD-21" value="Filtering option" style="rounded=0;whiteSpace=wrap;html=1;fillColor=none;" parent="1" vertex="1">
          <mxGeometry x="131" y="377" width="120" height="60" as="geometry" />
        </mxCell>
        <mxCell id="Hu1gVXQANjmjMfa-NOWD-138" style="edgeStyle=orthogonalEdgeStyle;rounded=0;orthogonalLoop=1;jettySize=auto;html=1;" parent="1" source="Hu1gVXQANjmjMfa-NOWD-137" target="Hu1gVXQANjmjMfa-NOWD-5" edge="1">
          <mxGeometry relative="1" as="geometry" />
        </mxCell>
        <mxCell id="Hu1gVXQANjmjMfa-NOWD-139" value="account details" style="edgeLabel;html=1;align=center;verticalAlign=middle;resizable=0;points=[];labelBackgroundColor=none;" parent="Hu1gVXQANjmjMfa-NOWD-138" vertex="1" connectable="0">
          <mxGeometry x="-0.1637" y="-1" relative="1" as="geometry">
            <mxPoint x="-19" y="-9" as="offset" />
          </mxGeometry>
        </mxCell>
        <mxCell id="Hu1gVXQANjmjMfa-NOWD-137" value="cached" style="rounded=0;whiteSpace=wrap;html=1;fillColor=none;" parent="1" vertex="1">
          <mxGeometry x="-141" y="517" width="120" height="60" as="geometry" />
        </mxCell>
        <mxCell id="2_-34rHhVmnG4LonBreD-4" value="sls&lt;br&gt;mysql" style="shape=cylinder3;whiteSpace=wrap;html=1;boundedLbl=1;backgroundOutline=1;size=15;fillColor=none;" vertex="1" parent="1">
          <mxGeometry x="116" y="512" width="150" height="80" as="geometry" />
        </mxCell>
      </root>
    </mxGraphModel>
  </diagram>
</mxfile>
